<svg xmlns="http://www.w3.org/2000/svg" viewBox="0 0 100 42" enable-background="new 0 0 100 42"><path d="M18.9 18.4c-.6-1.3-1.5-2.3-2.7-3-1.2-.6-2.7-.9-4.4-.8-2 .1-3.9.7-5.5 1.9-1.6 1.1-2.8 2.6-3.7 4.4-.9 1.8-1.2 3.8-1.1 6 .1 1.8.5 3.3 1.3 4.6.8 1.3 1.8 2.3 3.1 3 1.3.7 2.7 1 4.4.9 1.3-.1 2.6-.4 3.7-1s2.2-1.4 3-2.4l-.4 2.8 4.9-.3 3.9-28.4-4.9.3-1.6 12zm-1.5 9c-.5 1.1-1.3 2-2.2 2.7-1 .7-2.1 1.1-3.3 1.1-1.5.1-2.8-.3-3.7-1.2-1-.9-1.5-2.1-1.6-3.7-.1-1.3.1-2.5.7-3.6.5-1.1 1.3-2 2.2-2.7 1-.7 2.1-1.1 3.3-1.1 1.5-.1 2.8.3 3.7 1.2 1 .9 1.5 2.2 1.6 3.8 0 1.2-.2 2.4-.7 3.5zM43.9 12.9l-.6 4.1c-.6-1.3-1.5-2.3-2.7-3-1.2-.6-2.7-.9-4.4-.8-2 .1-3.9.7-5.5 1.9-1.6 1.1-2.8 2.6-3.7 4.4-.9 1.8-1.2 3.8-1.1 6 .1 1.8.5 3.3 1.3 4.6.8 1.3 1.8 2.3 3.1 3 1.3.7 2.7 1 4.4.9 1.3-.1 2.6-.4 3.7-1 1.2-.6 2.2-1.4 3-2.4l-.4 2.8 5-.4 2.8-20.5-4.9.4zm-2.1 13c-.5 1.1-1.3 2-2.2 2.7-1 .7-2.1 1.1-3.3 1.1-1.5.1-2.8-.3-3.7-1.2-1-.9-1.5-2.1-1.6-3.7-.1-1.3.1-2.5.7-3.6.5-1.1 1.3-2 2.2-2.7 1-.7 2.1-1.1 3.3-1.1 1.5-.1 2.8.3 3.7 1.2s1.5 2.2 1.6 3.8c0 1.3-.2 2.4-.7 3.5zM66.1 11.5l-7.4 15.4-3.6-14.7-5 .3 5.6 19.6-.8 1.3c-1 1.5-2.1 2.3-3.5 2.3-.8 0-1.6-.2-2.4-.7l-2.3 3.6c.7.6 1.5 1.1 2.3 1.3.8.3 1.7.4 2.7.3 3.2-.2 5.6-2 7.3-5.3l12.3-23.8-5.2.4zM86.2 12.5c-1.7-1.5-4-2.1-6.8-2-2.2.1-4.1.7-5.8 1.9-1.7 1.1-3 2.5-3.9 4.3-.9 1.8-1.3 3.8-1.1 5.9.1 1.8.6 3.4 1.6 4.8.9 1.3 2.2 2.4 3.8 3 1.6.7 3.4.9 5.4.8 3-.1 5.6-1.2 7.6-3.2l-2.5-2.8c-1.5 1.3-3.3 2-5.2 2.1-1.6.1-2.9-.2-3.9-1s-1.6-1.9-1.8-3.3l15.3-1c.2-1.1.2-2.2.2-3.2-.2-2.7-1.1-4.8-2.9-6.3zm-12.5 7.1c.4-1.5 1.1-2.7 2.2-3.6s2.4-1.5 3.8-1.6c1.5-.1 2.6.3 3.5 1.1.8.8 1.3 2 1.3 3.5l-10.8.6zM94.5 1.9l-3.9 28.4 5-.3 3.9-28.4z"/></svg>