<svg xmlns="http://www.w3.org/2000/svg" viewBox="0 0 150 30" enable-background="new 0 0 150 30"><path d="M21.7 11.9c-2.2.1-4 1.2-5.3 3.4-.3-1-.9-1.8-1.8-2.3-.9-.5-1.9-.8-3.2-.8-1.9.1-3.4.8-4.5 2.3l.3-2-4.2.2-2.4 14.5 4.1-.1 1.3-7.6c.2-1.1.6-1.9 1.3-2.6.7-.7 1.5-1 2.4-1 .8 0 1.4.2 1.9.6.5.4.7 1 .7 1.7 0 .3 0 .5-.1.8l-1.3 8 4.1-.1 1.3-7.5c.2-1.1.6-1.9 1.3-2.6.7-.7 1.5-1 2.4-1 .8 0 1.4.2 1.8.6.5.4.7 1 .7 1.7 0 .3 0 .5-.1.8l-1.4 8 4.1-.1 1.5-8.6c.1-.5.1-1 .1-1.5 0-1.4-.5-2.5-1.5-3.4-.7-1-1.9-1.4-3.5-1.4zM39.9 12.3c-1-.5-2.2-.7-3.6-.7-1.6 0-3 .4-4.2 1.2-1.2.7-2.2 1.8-2.8 3-.7 1.3-1 2.7-.9 4.2 0 1.3.4 2.5 1 3.4.6 1 1.5 1.7 2.7 2.2 1.1.5 2.5.7 4 .7 2.3-.1 4.1-.8 5.6-2.2l-2.1-2.3c-.5.4-1 .7-1.7 1s-1.2.4-1.9.4c-1 0-1.9-.2-2.5-.7-.6-.5-1-1.2-1.1-2.1l10.6-.4c.2-.8.2-1.5.2-2.3 0-1.3-.3-2.4-.9-3.3-.6-.9-1.4-1.6-2.4-2.1zm-7.2 5.6c.3-.9.8-1.7 1.5-2.3.7-.6 1.5-.9 2.4-.9.9 0 1.6.2 2.1.8.5.5.7 1.3.7 2.2l-6.7.2zM55.7 11.8c-1-.5-2.2-.7-3.6-.7-1.6 0-3 .4-4.2 1.2-1.2.7-2.2 1.8-2.8 3-.7 1.3-1 2.7-.9 4.2 0 1.3.4 2.5 1 3.4.6 1 1.5 1.7 2.7 2.2 1.1.5 2.5.7 4 .7 2.3-.1 4.1-.8 5.6-2.2l-2.1-2.3c-.5.4-1 .7-1.7 1-.6.2-1.2.4-1.9.4-1 0-1.9-.2-2.5-.7-.6-.5-1-1.2-1.1-2.1l10.6-.3c.2-.8.2-1.5.2-2.3 0-1.3-.3-2.4-.9-3.3-.6-.9-1.4-1.7-2.4-2.2zm-7.3 5.6c.3-.9.8-1.7 1.5-2.3.7-.6 1.5-.9 2.4-.9.9 0 1.6.2 2.1.8.5.5.7 1.3.7 2.2l-6.7.2zM67.6 7.5l-4.1.1-.7 4-2 .1-.5 2.9 2-.1-1.1 6.5c-.1.3-.1.7-.1 1.1 0 1.1.4 2 1.2 2.6.7.6 1.7.9 2.9.9.6 0 1.3-.1 1.9-.3.7-.2 1.3-.4 1.9-.8l-.6-3.1c-.8.4-1.6.6-2.2.7-.3 0-.5 0-.7-.2-.1-.1-.2-.3-.2-.6 0-.2 0-.4.1-.7l1.1-6.2 4-.1.5-2.9-4 .1.6-4zM88.6 12.9c-.4-.9-1.1-1.6-1.9-2-.8-.5-1.8-.7-2.9-.6-1.4 0-2.7.4-3.9 1.2-1.2.8-2.1 1.8-2.7 3.1-.6 1.3-.9 2.7-.9 4.3 0 1.3.3 2.4.8 3.3.5 1 1.2 1.7 2.1 2.2.9.5 1.9.8 3 .7 1.8-.1 3.4-.8 4.7-2.1l-.4 1.8 4.1-.1 3.4-20.1-4 .1-1.4 8.2zm-1.3 6.5c-.4.7-.9 1.3-1.5 1.7-.6.4-1.3.7-2.1.7-1 0-1.7-.3-2.3-.9-.6-.6-.9-1.4-.9-2.4 0-.8.1-1.6.5-2.3.4-.7.9-1.3 1.5-1.7.6-.4 1.3-.7 2.1-.7.9 0 1.7.3 2.3.9.6.6.9 1.4.9 2.4 0 .8-.2 1.6-.5 2.3zM106.9 9.7l-.4 2.6c-.4-.9-1.1-1.6-1.9-2-.8-.5-1.8-.7-2.9-.6-1.4 0-2.7.4-3.9 1.2-1.2.8-2.1 1.8-2.7 3.1-.6 1.3-.9 2.7-.9 4.3 0 1.3.3 2.4.8 3.3.5 1 1.2 1.7 2.1 2.2.9.5 1.9.8 3 .7 1.8-.1 3.4-.8 4.7-2.1l-.4 1.8 4.1-.1 2.5-14.5-4.1.1zm-1.8 9.2c-.4.7-.9 1.3-1.5 1.7-.6.4-1.3.7-2.1.7-1 0-1.7-.3-2.3-.9-.6-.6-.9-1.4-.9-2.4 0-.8.1-1.6.5-2.3.4-.7.9-1.3 1.5-1.7.6-.4 1.3-.7 2.1-.7.9 0 1.7.3 2.3.9.6.6.9 1.4.9 2.4.1.8-.1 1.6-.5 2.3zM123.5 9.3l-5.2 10.2-2-10-4.2.1 3.5 14.1-.5.8c-.7.9-1.5 1.4-2.4 1.4-.6 0-1.2-.2-1.6-.6l-2 2.8c.6.5 1.2.8 1.8 1.1.6.2 1.3.3 2.1.3 1.2 0 2.3-.4 3.3-1s1.8-1.6 2.4-2.9l9.1-16.5-4.3.2zM137.5 9.5c-1-.5-2.2-.7-3.6-.7-1.6 0-3 .4-4.2 1.2-1.2.7-2.2 1.8-2.8 3-.7 1.3-1 2.7-.9 4.2 0 1.3.4 2.5 1 3.4.6 1 1.5 1.7 2.7 2.2 1.1.5 2.5.7 4 .7 2.3-.1 4.1-.8 5.6-2.2l-2.1-2.3c-.5.4-1 .7-1.7 1-.6.2-1.2.4-1.9.4-1 0-1.9-.2-2.5-.7-.6-.5-1-1.2-1.1-2.1l10.6-.3c.2-.8.2-1.5.2-2.3 0-1.3-.3-2.4-.9-3.3-.6-.9-1.4-1.7-2.4-2.2zm-7.3 5.6c.3-.9.8-1.7 1.5-2.3.7-.6 1.5-.9 2.4-.9.9 0 1.6.2 2.1.8.5.5.7 1.3.7 2.2l-6.7.2zM145.2 3.2l-3.5 20 4.2-.1 3.4-20z"/></svg>