<?xml version="1.0" encoding="UTF-8"?>
<!-- Colophon — Scriptorium Owl — Head Crop — Frost (Light) Ground -->
<!-- Usage: head-only mark on light backgrounds -->
<!-- v3 change: painterly hand-illustrated source. Crop of fullbody-frost (viewBox-only). -->
<svg version="1.1" xmlns="http://www.w3.org/2000/svg" viewBox="280 60 720 480" width="160" height="160" role="img" aria-label="Colophon Scriptorium Owl head (light ground)">
<path d="M0,0 L2,2 L7,19 L19,61 L25,82 L29,96 L37,124 L43,143 L52,140 L82,127 L107,116 L148,98 L153,100 L178,111 L219,129 L240,138 L251,143 L255,143 L259,132 L267,104 L270,96 L277,72 L282,54 L288,35 L293,17 L298,0 L300,0 L303,17 L308,39 L309,48 L312,60 L314,69 L315,78 L317,84 L320,100 L325,124 L332,160 L336,180 L336,183 L341,185 L360,194 L367,198 L375,243 L382,285 L385,301 L390,335 L396,371 L399,393 L401,426 L404,446 L420,467 L434,486 L448,505 L462,524 L472,537 L482,551 L494,567 L504,581 L518,600 L531,618 L544,636 L557,654 L562,661 L561,666 L546,704 L543,713 L557,739 L569,760 L583,785 L596,808 L606,826 L605,833 L587,873 L573,903 L570,910 L563,904 L554,893 L542,880 L533,869 L522,857 L513,846 L504,836 L495,825 L482,810 L470,796 L458,782 L449,771 L440,761 L435,755 L435,764 L437,779 L440,811 L440,817 L435,827 L432,834 L420,861 L416,871 L409,886 L390,928 L380,950 L372,968 L354,976 L343,981 L313,994 L311,996 L324,1026 L337,1056 L337,1058 L331,1056 L322,1052 L305,1045 L294,1040 L289,1038 L287,1042 L277,1053 L268,1064 L261,1071 L259,1071 L255,1063 L248,1047 L242,1034 L235,1018 L231,1009 L231,1007 L201,1012 L182,1015 L170,1017 L151,1020 L141,1020 L91,1012 L64,1008 L61,1011 L50,1035 L47,1042 L37,1064 L33,1071 L30,1070 L23,1062 L14,1052 L5,1041 L1,1039 L-22,1049 L-33,1054 L-42,1058 L-44,1058 L-41,1049 L-34,1033 L-27,1017 L-17,995 L-26,992 L-47,982 L-72,971 L-78,968 L-86,952 L-100,922 L-107,907 L-119,881 L-126,866 L-134,850 L-139,837 L-142,832 L-146,822 L-149,816 L-145,773 L-143,755 L-155,769 L-167,783 L-176,794 L-185,804 L-194,815 L-203,825 L-212,836 L-222,847 L-231,858 L-240,868 L-249,879 L-261,892 L-270,903 L-276,910 L-279,907 L-286,891 L-298,864 L-313,830 L-312,824 L-298,799 L-284,775 L-270,750 L-257,727 L-250,714 L-251,706 L-261,680 L-267,663 L-265,659 L-253,642 L-239,623 L-225,604 L-211,585 L-200,570 L-186,551 L-172,532 L-158,513 L-144,494 L-128,473 L-115,455 L-109,447 L-107,435 L-106,415 L-100,379 L-97,355 L-91,320 L-86,292 L-79,251 L-73,217 L-70,198 L-55,190 L-41,183 L-38,174 L-34,151 L-29,126 L-28,125 L-25,108 L-10,39 L-6,23 L-1,2 Z " fill="#5A7A96" transform="translate(479,84)"/>
<path d="M0,0 L1,0 L5,29 L21,50 L35,69 L49,88 L63,107 L73,120 L83,134 L95,150 L105,164 L119,183 L132,201 L145,219 L158,237 L163,244 L162,249 L147,287 L144,296 L158,322 L170,343 L184,368 L197,391 L207,409 L206,416 L188,456 L174,486 L171,493 L164,487 L155,476 L143,463 L134,452 L123,440 L114,429 L105,419 L96,408 L83,393 L71,379 L59,365 L50,354 L41,344 L36,338 L36,347 L38,362 L41,394 L41,400 L36,410 L33,417 L21,444 L17,454 L10,469 L-9,511 L-19,533 L-27,551 L-45,559 L-56,564 L-86,577 L-88,579 L-75,609 L-62,639 L-62,641 L-68,639 L-77,635 L-94,628 L-105,623 L-110,621 L-112,625 L-122,636 L-131,647 L-138,654 L-140,654 L-144,646 L-151,630 L-157,617 L-164,601 L-168,592 L-168,590 L-198,595 L-217,598 L-229,600 L-248,603 L-258,603 L-308,595 L-335,591 L-338,594 L-349,618 L-352,625 L-362,647 L-366,654 L-369,653 L-376,645 L-385,635 L-394,624 L-398,622 L-421,632 L-432,637 L-441,641 L-443,641 L-440,632 L-433,616 L-426,600 L-416,578 L-425,575 L-446,565 L-471,554 L-477,551 L-485,535 L-499,505 L-506,490 L-518,464 L-525,449 L-533,433 L-538,420 L-541,415 L-545,405 L-548,399 L-544,356 L-542,338 L-554,352 L-566,366 L-575,377 L-584,387 L-593,398 L-602,408 L-611,419 L-621,430 L-630,441 L-639,451 L-648,462 L-660,475 L-669,486 L-675,493 L-678,490 L-685,474 L-697,447 L-712,413 L-711,407 L-697,382 L-683,358 L-669,333 L-656,310 L-649,297 L-650,289 L-660,263 L-666,246 L-664,242 L-652,225 L-638,206 L-624,187 L-610,168 L-599,153 L-585,134 L-571,115 L-557,96 L-543,77 L-527,56 L-514,38 L-508,30 L-506,18 L-504,2 L-502,2 L-498,25 L-494,40 L-489,65 L-480,107 L-468,161 L-461,195 L-453,230 L-442,281 L-435,315 L-430,340 L-426,356 L-422,373 L-416,404 L-410,431 L-406,447 L-402,467 L-392,513 L-392,517 L-388,519 L-372,528 L-353,540 L-327,556 L-308,568 L-282,584 L-263,596 L-255,601 L-249,600 L-228,587 L-206,573 L-182,558 L-161,545 L-140,532 L-117,518 L-116,517 L-113,501 L-110,489 L-107,473 L-102,452 L-97,427 L-91,401 L-82,359 L-74,324 L-67,291 L-58,252 L-50,215 L-43,185 L-35,151 L-30,129 L-19,80 L-12,51 L-6,25 L-1,3 Z " fill="#ADAFAD" transform="translate(878,501)"/>
<path d="M0,0 L21,9 L51,22 L70,30 L91,39 L106,46 L125,54 L138,60 L148,64 L164,71 L176,76 L181,79 L185,120 L189,167 L195,230 L195,239 L179,247 L165,253 L157,257 L139,265 L124,272 L91,287 L47,306 L17,319 L4,324 L-1,324 L-2,322 L-6,323 L-13,321 L-28,314 L-47,306 L-74,294 L-94,285 L-114,276 L-130,269 L-144,262 L-173,249 L-195,239 L-192,208 L-183,120 L-179,84 L-177,77 L-165,72 L-120,52 L-105,46 L-90,39 L-75,33 L-60,26 L-34,15 L-19,8 Z " fill="#CAD1D7" transform="translate(626,238)"/>
<path d="M0,0 L2,2 L7,19 L19,61 L25,82 L29,96 L37,124 L43,143 L52,140 L82,127 L107,116 L148,98 L153,100 L178,111 L219,129 L240,138 L251,143 L255,143 L259,132 L267,104 L270,96 L277,72 L282,54 L288,35 L293,17 L298,0 L300,0 L303,17 L308,39 L309,48 L312,60 L314,69 L315,78 L317,84 L320,100 L325,124 L332,160 L336,180 L336,183 L341,185 L360,194 L365,197 L365,200 L354,209 L344,218 L336,225 L334,225 L334,227 L329,231 L320,230 L311,226 L303,222 L292,218 L283,214 L272,209 L248,199 L233,192 L217,185 L182,170 L159,160 L147,155 L114,169 L99,176 L78,185 L53,196 L16,212 L-23,229 L-28,231 L-33,230 L-36,228 L-36,226 L-40,224 L-45,220 L-45,218 L-49,216 L-60,206 L-63,204 L-63,202 L-67,200 L-67,198 L-69,197 L-52,189 L-41,183 L-38,174 L-34,151 L-29,126 L-28,125 L-25,108 L-10,39 L-6,23 L-1,2 Z " fill="#5A7A96" transform="translate(479,84)"/>
<path d="M0,0 L5,5 L17,21 L31,39 L45,58 L58,75 L74,96 L86,112 L102,133 L107,140 L119,112 L121,106 L123,106 L137,132 L149,153 L163,178 L176,201 L186,219 L185,226 L167,266 L153,296 L150,303 L143,297 L134,286 L122,273 L113,262 L102,250 L93,239 L84,229 L75,218 L62,203 L50,189 L38,175 L29,164 L20,154 L13,145 L12,139 L10,114 L7,83 L1,19 L0,14 Z " fill="#3E4C59" transform="translate(899,691)"/>
<path d="M0,0 L1,0 L1,17 L-2,43 L-5,76 L-7,91 L-10,123 L-13,145 L-26,160 L-38,174 L-47,185 L-56,195 L-65,206 L-74,216 L-83,227 L-93,238 L-102,249 L-111,259 L-120,270 L-132,283 L-141,294 L-147,301 L-150,298 L-157,282 L-169,255 L-184,221 L-183,215 L-169,190 L-155,166 L-141,141 L-128,118 L-120,104 L-117,108 L-106,135 L-106,139 L-101,134 L-91,120 L-81,107 L-67,88 L-57,75 L-42,55 L-27,35 L-11,14 Z " fill="#3E4C59" transform="translate(350,693)"/>
<path d="M0,0 L2,0 L16,19 L31,39 L45,58 L59,77 L69,90 L79,104 L91,120 L101,134 L115,153 L128,171 L141,189 L154,207 L159,214 L158,219 L143,257 L129,291 L125,301 L120,296 L104,275 L89,255 L73,234 L57,213 L43,194 L29,176 L17,160 L15,146 L11,108 L8,84 L4,44 L2,23 L0,7 Z " fill="#748EA5" transform="translate(882,531)"/>
<path d="M0,0 L2,0 L2,8 L0,18 L-3,50 L-6,69 L-9,100 L-11,115 L-16,155 L-17,172 L-18,172 L-19,162 L-30,176 L-46,197 L-58,213 L-72,232 L-82,245 L-97,265 L-112,285 L-123,300 L-125,300 L-131,284 L-139,265 L-146,245 L-157,215 L-155,211 L-143,194 L-129,175 L-115,156 L-101,137 L-90,122 L-76,103 L-62,84 L-48,65 L-34,46 L-18,25 L-5,7 Z " fill="#758EA6" transform="translate(369,532)"/>
<path d="M0,0 L109,0 L109,113 L0,113 Z " fill="#E4E4DE" transform="translate(678,340)"/>
<path d="M0,0 L109,0 L109,113 L0,113 Z " fill="#E4E4DE" transform="translate(466,340)"/>
<path d="M0,0 L1,3 L-4,15 L-17,44 L-21,54 L-28,69 L-47,111 L-57,133 L-65,151 L-83,159 L-94,164 L-124,177 L-127,178 L-135,162 L-141,147 L-146,136 L-153,119 L-154,117 L-135,103 L-121,92 L-104,79 L-83,63 L-70,53 L-53,40 L-35,26 L-14,10 Z " fill="#9A9C9B" transform="translate(916,901)"/>
<path d="M0,0 L9,6 L30,22 L50,37 L68,51 L89,67 L107,81 L120,91 L134,102 L147,112 L157,119 L153,125 L143,151 L132,179 L129,180 L101,167 L76,156 L70,153 L62,137 L48,107 L41,92 L29,66 L22,51 L14,35 L9,22 L6,17 L2,7 Z " fill="#9B9C9B" transform="translate(331,899)"/>
<path d="M0,0 L9,3 L23,8 L35,13 L70,27 L99,38 L108,42 L118,46 L130,51 L141,54 L140,59 L125,97 L111,131 L107,141 L102,136 L86,115 L71,95 L55,74 L39,53 L25,34 L11,16 L0,1 Z " fill="#8CA3B9" transform="translate(900,691)"/>
<path d="M0,0 L2,2 L7,19 L19,61 L25,82 L29,96 L37,124 L42,139 L42,145 L32,150 L-1,165 L-28,178 L-37,182 L-39,182 L-39,175 L-38,174 L-34,151 L-29,126 L-28,125 L-25,108 L-10,39 L-6,23 L-1,2 Z " fill="#7B9CB8" transform="translate(479,84)"/>
<path d="M0,0 L2,0 L0,5 L-10,17 L-24,36 L-37,53 L-51,72 L-61,85 L-76,105 L-91,125 L-102,140 L-104,140 L-110,124 L-118,105 L-125,85 L-136,55 L-135,53 L-126,50 L-112,45 L-101,40 L-85,34 L-58,23 L-31,12 L-18,7 L-12,4 L-3,1 Z " fill="#8EA5BA" transform="translate(348,692)"/>
<path d="M0,0 L2,0 L16,26 L28,47 L42,72 L55,95 L65,113 L64,120 L46,160 L32,190 L29,197 L26,194 L24,182 L19,165 L17,156 L11,135 L6,114 L1,96 L-2,83 L-4,76 L-8,60 L-12,44 L-13,42 L-13,32 L-1,3 Z " fill="#546576" transform="translate(1020,797)"/>
<path d="M0,0 L3,4 L14,31 L15,38 L7,70 L2,87 L-3,107 L-7,121 L-14,147 L-19,167 L-25,187 L-26,196 L-28,197 L-32,189 L-45,160 L-61,124 L-64,117 L-63,111 L-49,86 L-35,62 L-21,37 L-8,14 Z " fill="#556677" transform="translate(230,797)"/>
<path d="M0,0 L2,0 L5,17 L10,39 L11,48 L14,60 L16,69 L17,78 L19,84 L22,100 L27,124 L34,160 L38,180 L38,182 L29,179 L-5,163 L-25,154 L-41,147 L-42,144 L-36,122 L-30,102 L-25,86 L-21,72 L-16,54 L-10,35 L-5,17 Z " fill="#7B9CB8" transform="translate(777,84)"/>
<path d="M0,0 L5,5 L17,21 L31,39 L45,58 L58,75 L74,96 L86,112 L102,133 L106,140 L101,139 L89,134 L54,119 L32,109 L14,101 L9,99 L8,97 L2,29 L0,14 Z " fill="#4D5D6D" transform="translate(899,691)"/>
<path d="M0,0 L1,0 L1,17 L-2,43 L-5,76 L-7,91 L-8,105 L-9,105 L-9,98 L-38,111 L-79,129 L-101,138 L-103,138 L-101,134 L-91,120 L-81,107 L-67,88 L-57,75 L-42,55 L-27,35 L-11,14 Z " fill="#506172" transform="translate(350,693)"/>
<path d="M0,0 L6,2 L27,14 L48,26 L65,36 L79,44 L103,58 L128,72 L135,76 L140,75 L155,66 L181,51 L207,36 L236,19 L264,3 L270,0 L272,0 L272,15 L252,26 L228,40 L204,54 L183,66 L157,81 L138,92 L132,91 L108,77 L80,61 L59,49 L33,34 L7,19 L0,15 Z " fill="#7690A8" transform="translate(489,700)"/>
<path d="M0,0 L2,1 L15,31 L28,61 L28,63 L22,61 L13,57 L-4,50 L-15,45 L-20,43 L-22,47 L-32,58 L-41,69 L-48,76 L-50,75 L-46,37 L-43,10 L-42,6 L-19,2 L-5,1 Z " fill="#8199AF" transform="translate(788,1079)"/>
<path d="M0,0 L19,2 L43,6 L44,7 L47,44 L49,63 L49,76 L44,71 L37,64 L28,53 L20,44 L11,47 L-5,54 L-16,59 L-25,63 L-27,63 L-24,54 L-17,38 L-10,22 Z " fill="#829AB0" transform="translate(462,1079)"/>
<path d="M0,0 L12,6 L27,15 L51,29 L73,42 L102,59 L112,65 L117,63 L146,46 L173,30 L197,16 L219,3 L225,0 L225,14 L207,24 L190,34 L161,51 L137,65 L115,78 L109,77 L85,63 L59,48 L32,32 L4,16 L0,13 Z " fill="#758FA7" transform="translate(512,800)"/>
<path d="M0,0 L64,0 L61,10 L54,30 L35,83 L32,89 L30,87 L16,47 L4,13 L0,2 Z " fill="#E4E4DE" transform="translate(594,473)"/>
<path d="M0,0 L5,2 L31,17 L58,33 L82,47 L89,51 L93,50 L120,34 L147,18 L171,4 L178,0 L180,0 L180,10 L156,24 L129,40 L101,57 L92,62 L86,61 L64,48 L40,34 L11,17 L0,10 Z " fill="#7690A8" transform="translate(535,895)"/>
<path d="M0,0 L36,0 L36,36 L0,36 Z " fill="#0C1018" transform="translate(736,357)"/>
<path d="M0,0 L36,0 L36,36 L0,36 Z " fill="#0C1018" transform="translate(524,357)"/>
<path d="M0,0 L13,1 L34,4 L35,7 L23,33 L20,40 L10,62 L6,69 L5,69 L0,15 Z " fill="#4C5B69" transform="translate(506,1086)"/>
<path d="M0,0 L6,0 L6,13 L2,51 L0,68 L-4,64 L-11,47 L-15,38 L-25,16 L-29,7 L-29,4 L-17,2 Z " fill="#4B5A68" transform="translate(739,1086)"/>
<path d="M0,0 L109,0 L109,113 L0,113 Z M2,1 L2,111 L107,111 L107,2 Z " fill="#E4E4DE" transform="translate(466,340)"/>
<path d="M0,0 L19,0 L19,19 L0,19 Z " fill="#BA9B63" transform="translate(481,413)"/>
<path d="M0,0 L18,0 L18,19 L0,19 Z " fill="#BD9D64" transform="translate(693,413)"/>
<path d="M0,0 L5,2 L8,4 L15,5 L15,6 L5,6 L-3,5 Z " fill="#919497" transform="translate(615,1098)"/>
<path d="M0,0 L1,4 L-1,10 L3,8 L6,8 L6,10 L-3,14 L-5,14 L-2,5 Z " fill="#88A1B8" transform="translate(440,1128)"/>
<path d="M0,0 L2,0 L2,8 L-3,9 L-6,12 L-8,11 Z " fill="#8098AD" transform="translate(369,532)"/>
<path d="M0,0 L5,5 L8,9 L7,11 L4,8 L2,13 L1,13 Z " fill="#405062" transform="translate(899,691)"/>
<path d="M0,0 L1,0 L1,8 L0,14 L-1,14 L-2,6 L-5,8 L-3,4 Z " fill="#45596A" transform="translate(350,693)"/>
<path d="M0,0 L2,0 L3,9 L-1,9 Z " fill="#BFBEBC" transform="translate(374,503)"/>
<path d="M0,0 L20,0 L20,3 L17,2 L0,1 Z " fill="#0C1018" transform="translate(538,358)"/>
<path d="M0,0 L1,3 L-4,8 L-7,7 Z " fill="#0C1018" transform="translate(747,1147)"/>
<path d="M0,0 L3,1 L-4,7 L-4,4 Z " fill="#0C1018" transform="translate(327,849)"/>
<path d="M0,0 L2,2 L-2,7 L-4,7 L-2,3 Z M2,0 Z " fill="#7D96AE" transform="translate(353,554)"/>
<path d="M0,0 L2,0 L0,4 L-5,7 L-3,3 Z " fill="#0C1018" transform="translate(298,883)"/>
<path d="M0,0 L2,1 L0,5 L-4,6 Z M2,0 Z " fill="#7C95AE" transform="translate(307,616)"/>
</svg>
