<?xml version="1.0" encoding="UTF-8"?>
<!-- Glyphon — Primary Mark — v3.1 illustrative -->
<!-- 2026-04-27: refreshed from latest VTracer source (matches glyphon.ai live), viewBox tightened. -->
<!-- 2026-04-26: replaced geometric strike mark with illustrative version. -->
<!-- Vector-traced from a hand-drawn original via VTracer; background removed. -->
<!-- Eye socket #0D151C (raw VTracer near-black) · Catch-light primary #E0D8C8 (raw warm cream) · -->
<!-- Catch-light secondary #A38347 (dim gold) · Body in #BB9551–#D9BF91 gold family -->
<!-- Note: eye socket and catch-light are intentionally not snapped to Sigil Dark / Parchment — -->
<!-- this matches the production glyphon.ai surface. The dark and white mark variants do use -->
<!-- the family palette, since they're brand-package assets only (not shipped to the live site). -->
<!-- SigilArk Brand Family — April 2026 -->
<svg version="1.1" xmlns="http://www.w3.org/2000/svg" viewBox="143 192 970 970" width="240" height="240" role="img">
<path d="M0,0 L5,2 L28,14 L50,26 L80,42 L103,55 L131,70 L154,83 L181,98 L205,112 L231,127 L257,142 L277,154 L292,163 L312,175 L340,192 L361,205 L383,219 L402,231 L405,232 L407,222 L414,198 L424,164 L431,140 L434,133 L460,119 L477,109 L500,96 L512,89 L522,90 L542,96 L560,101 L578,107 L591,111 L626,122 L639,126 L660,133 L672,146 L681,157 L689,165 L690,167 L744,175 L754,177 L773,180 L795,183 L809,185 L819,187 L835,190 L861,194 L875,197 L875,198 L839,204 L781,213 L756,217 L714,223 L681,228 L671,229 L669,234 L654,257 L642,276 L628,298 L615,319 L601,342 L593,358 L581,381 L547,449 L537,468 L526,490 L516,509 L509,523 L483,537 L465,547 L449,556 L438,562 L409,579 L377,598 L348,615 L324,629 L318,633 L313,649 L294,706 L288,723 L287,725 L282,724 L266,715 L260,716 L226,732 L193,747 L176,755 L174,755 L177,745 L193,700 L207,661 L216,637 L215,633 L206,623 L202,618 L204,609 L220,564 L238,515 L251,480 L255,470 L270,430 L271,424 L230,403 L211,393 L191,383 L172,373 L144,359 L125,349 L93,333 L74,323 L34,303 L26,293 L14,276 L1,258 L-12,240 L-22,226 L-35,208 L-45,194 L-47,190 L-31,194 L-15,200 L12,209 L22,213 L46,221 L53,224 L70,230 L115,246 L131,252 L162,263 L189,273 L199,276 L208,280 L221,284 L209,273 L198,264 L186,253 L175,244 L165,235 L154,226 L140,214 L126,203 L112,191 L98,180 L85,169 L81,165 L30,63 L21,44 L13,28 L0,1 Z " fill="#BB9551" transform="translate(214,299)"/>
<path d="M0,0 L6,1 L13,4 L24,16 L33,27 L41,35 L42,37 L96,45 L106,47 L125,50 L147,53 L161,55 L171,57 L187,60 L213,64 L227,67 L227,68 L191,74 L133,83 L108,87 L66,93 L33,98 L23,99 L21,104 L6,127 L-6,146 L-20,168 L-33,189 L-47,212 L-55,228 L-67,251 L-101,319 L-111,338 L-122,360 L-132,379 L-139,393 L-165,407 L-183,417 L-199,426 L-210,432 L-239,449 L-271,468 L-300,485 L-324,499 L-329,501 L-327,489 L-321,471 L-318,459 L-311,437 L-306,420 L-302,407 L-302,402 L-322,414 L-349,430 L-369,442 L-386,452 L-411,467 L-433,480 L-439,483 L-441,483 L-439,479 L-426,464 L-413,448 L-402,434 L-389,418 L-374,398 L-360,380 L-346,361 L-336,348 L-326,334 L-316,321 L-306,307 L-292,288 L-283,276 L-269,257 L-258,242 L-251,233 L-240,205 L-224,166 L-209,129 L-197,115 L-185,99 L-173,84 L-161,68 L-150,54 L-140,41 L-129,27 L-119,14 L-115,9 L-46,5 L-8,3 L0,3 Z " fill="#C8A463" transform="translate(862,429)"/>
<path d="M0,0 L10,1 L30,7 L48,12 L66,18 L79,22 L114,33 L127,37 L136,40 L136,44 L110,46 L35,50 L21,51 L8,68 L-5,84 L-13,95 L-24,109 L-38,127 L-51,144 L-62,158 L-72,170 L-87,207 L-105,251 L-114,274 L-123,285 L-135,302 L-147,318 L-161,337 L-175,356 L-188,374 L-197,386 L-206,398 L-218,414 L-234,435 L-249,455 L-263,472 L-274,486 L-287,502 L-296,513 L-305,524 L-288,515 L-275,507 L-248,491 L-231,481 L-216,472 L-201,463 L-172,446 L-165,442 L-165,448 L-170,463 L-177,488 L-183,507 L-189,528 L-193,543 L-196,552 L-212,599 L-224,634 L-225,636 L-230,635 L-246,626 L-252,627 L-286,643 L-319,658 L-336,666 L-338,666 L-335,656 L-319,611 L-305,572 L-296,548 L-297,544 L-306,534 L-310,529 L-308,520 L-292,475 L-274,426 L-261,391 L-257,381 L-242,341 L-232,318 L-224,302 L-220,292 L-210,270 L-191,270 L-169,271 L-137,272 L-118,272 L-122,268 L-155,246 L-171,235 L-189,223 L-204,213 L-222,202 L-237,192 L-261,177 L-283,163 L-298,154 L-319,141 L-344,126 L-359,117 L-388,100 L-402,92 L-408,89 L-408,87 L-397,90 L-372,98 L-328,109 L-303,115 L-279,121 L-253,127 L-237,131 L-205,138 L-200,140 L-189,142 L-173,146 L-132,156 L-106,162 L-80,168 L-75,168 L-93,155 L-107,145 L-105,133 L-98,109 L-88,75 L-81,51 L-78,44 L-52,30 L-35,20 L-12,7 Z " fill="#AD8948" transform="translate(726,388)"/>
<path d="M0,0 L16,4 L32,10 L59,19 L69,23 L93,31 L100,34 L117,40 L162,56 L178,62 L209,73 L236,83 L246,86 L255,90 L271,95 L272,98 L276,100 L290,113 L298,120 L315,136 L330,150 L340,159 L347,166 L350,169 L337,197 L334,204 L323,228 L320,236 L312,231 L277,213 L258,203 L238,193 L219,183 L191,169 L172,159 L140,143 L121,133 L81,113 L73,103 L61,86 L48,68 L35,50 L25,36 L12,18 L2,4 Z " fill="#D3B683" transform="translate(167,489)"/>
<path d="M0,0 L3,0 L1,6 L-14,35 L-47,101 L-57,120 L-68,142 L-78,161 L-85,175 L-111,189 L-129,199 L-145,208 L-156,214 L-185,231 L-217,250 L-246,267 L-270,281 L-275,283 L-273,271 L-267,253 L-264,241 L-257,219 L-252,202 L-246,182 L-236,173 L-219,160 L-202,146 L-186,134 L-169,121 L-148,105 L-133,94 L-114,80 L-100,70 L-82,57 L-68,47 L-48,33 L-25,17 L-10,7 Z " fill="#D9BF91" transform="translate(808,647)"/>
<path d="M0,0 L19,4 L57,12 L101,21 L128,27 L173,36 L205,43 L230,48 L254,53 L265,54 L266,56 L253,84 L250,91 L239,115 L236,123 L228,118 L193,100 L174,90 L154,80 L135,70 L107,56 L88,46 L56,30 L37,20 L1,2 Z " fill="#C8A86F" transform="translate(251,602)"/>
<path d="M0,0 L15,1 L55,7 L65,9 L84,12 L106,15 L120,17 L130,19 L146,22 L172,26 L186,29 L186,30 L150,36 L92,45 L67,49 L25,55 L-8,60 L-18,62 L-34,64 L-42,66 L-53,67 L-53,65 L-48,60 L-23,35 L-13,19 L-2,3 Z " fill="#A8823F" transform="translate(903,467)"/>
<path d="M0,0 L4,0 L2,8 L-8,38 L-13,53 L-17,64 L-20,73 L-26,91 L-30,103 L-31,108 L-33,110 L-44,104 L-71,90 L-94,77 L-118,64 L-135,54 L-135,51 L-105,40 L-79,30 L-45,17 L-30,12 L-18,7 Z " fill="#D9BD8E" transform="translate(845,535)"/>
<path d="M0,0 L13,4 L38,10 L59,16 L79,22 L91,25 L96,27 L92,31 L71,43 L46,58 L17,75 L-5,88 L-27,101 L-29,101 L-27,89 L-21,71 L-18,59 L-11,37 L-6,20 Z " fill="#CEAF7B" transform="translate(562,829)"/>
<path d="M0,0 L5,5 L17,19 L29,33 L38,44 L54,68 L64,82 L69,90 L63,88 L49,80 L43,81 L9,97 L-24,112 L-41,120 L-43,120 L-40,110 L-24,65 L-10,26 L-1,2 Z " fill="#C8A667" transform="translate(431,934)"/>
<path d="M0,0 L79,0 L75,2 L51,6 L-7,15 L-32,19 L-74,25 L-107,30 L-117,32 L-133,34 L-141,36 L-152,37 L-152,35 L-147,30 L-121,4 L-108,3 L-22,1 Z " fill="#896830" transform="translate(1002,497)"/>
<path d="M0,0 L49,0 L49,49 L0,49 Z " fill="#0D151C" transform="translate(769,465)"/>
<path d="M0,0 L2,0 L9,11 L25,34 L32,45 L26,43 L12,35 L6,36 L-28,52 L-61,67 L-78,75 L-80,75 L-78,71 L-74,69 L-64,60 L-57,53 L-49,46 L-35,32 L-27,25 L-19,17 L-11,10 Z " fill="#D7BC8D" transform="translate(468,979)"/>
<path d="M0,0 L10,0 L5,9 L-7,27 L-19,46 L-33,68 L-46,89 L-59,110 L-61,111 L-58,99 L-52,82 L-49,75 L-46,64 L-43,55 L-39,44 L-33,27 L-29,14 L-27,5 L-9,2 Z " fill="#CAAC78" transform="translate(875,529)"/>
<path d="M0,0 L16,0 L16,17 L0,17 Z " fill="#E0D8C8" transform="translate(795,472)"/>
<path d="M0,0 L9,0 L9,9 L0,9 Z " fill="#A38347" transform="translate(776,497)"/>
<path d="M0,0 L8,0 L19,3 L19,4 L-16,4 L-16,3 L-4,2 Z " fill="#AE8B49" transform="translate(1063,492)"/>
</svg>
