<?xml version="1.0" encoding="UTF-8"?>
<svg id="Layer_1" data-name="Layer 1" xmlns="http://www.w3.org/2000/svg" width="1159.798" height="627.61" viewBox="0 0 1159.798 627.61">
  <rect x="495.13" y="250.688" width="11.764" height="121.554" fill="#c1a066"/>
  <rect x="1068.112" y="250.688" width="11.764" height="121.554" fill="#c1a066"/>
  <rect x="174.084" y="250.688" width="11.764" height="121.554" fill="#c1a066"/>
  <polygon points="580.088 250.688 580.088 371.672 645.523 371.672 645.523 359.908 591.852 359.908 591.852 250.688 580.088 250.688" fill="#c1a066"/>
  <path d="M397.591,372.242v-61.839h-47.872v11.764h36.108v7.334c-6.685,19.824-23.88,32.613-43.95,32.613-29.713,0-52.118-21.842-52.118-50.811,0-28.019,24.553-50.812,54.732-50.812,13.738,0,26.876,4.746,36.995,13.366l7.628-8.953c-12.244-10.433-28.092-16.177-44.622-16.177-36.665,0-66.495,28.072-66.495,62.576,0,35.088,28.061,62.574,63.882,62.574,17.461,0,33.174-7.633,43.95-20.526v18.891h11.764Z" fill="#c1a066"/>
  <path d="M44.73,302.642h-1.189c-13.584,0-28.101-5.663-28.101-21.565,0-14.48,15.499-21.076,29.899-21.076,17.663,0,30.301,7.006,30.412,7.067l5.836-10.213c-.615-.352-15.321-8.618-36.248-8.618-24.142,0-41.662,13.81-41.662,32.84,0,19.933,16.02,33.328,39.865,33.328h1.189c18.97,0,30.755,9.087,30.755,23.711,0,15.93-16.946,23.182-32.692,23.182-19.277,0-36.905-9.623-37.081-9.719l-5.711,10.282c.821.46,20.389,11.201,42.792,11.201,25.759,0,44.456-14.697,44.456-34.946,0-21.218-17.086-35.474-42.518-35.474Z" fill="#c1a066"/>
  <path d="M992.302,285.37c0-19.124-15.244-34.682-33.983-34.682h-46.401v121.554h11.764v-109.549h34.638c12.252,0,22.219,10.173,22.219,22.677s-9.968,22.678-22.219,22.678h-15.323l40.247,64.194h13.967l-33.044-52.704c15.962-2.833,28.136-17.078,28.136-34.168Z" fill="#c1a066"/>
  <polygon points="1104.407 304.755 1156.553 250.688 1140.21 250.688 1088.673 304.127 1144.581 372.242 1159.798 372.242 1104.407 304.755" fill="#c1a066"/>
  <polygon points="687.832 372.242 700.635 372.242 752.834 250.688 740.031 250.688 687.832 372.242" fill="#c1a066"/>
  <polygon points="307.73 474.112 366.221 508.313 366.221 461.149 307.73 426.006 307.73 474.112" fill="#c1a066"/>
  <polygon points="366.221 119.406 307.73 153.638 307.73 199.341 366.221 164.709 366.221 119.406" fill="#c1a066"/>
  <polygon points="788.401 334.176 794.319 334.176 788.401 324.009 787.471 322.412 751.64 322.412 751.64 334.176 788.401 334.176" fill="#c1a066"/>
  <polygon points="788.401 340.384 788.401 451.615 567.672 582.186 391.709 476.463 391.709 523.216 570.245 627.61 832.759 474.112 832.759 400.212 797.933 340.384 788.401 340.384" fill="#c1a066"/>
  <polygon points="832.759 336.472 832.759 289.082 832.759 153.638 570.245 0 391.709 104.489 391.709 149.618 567.672 45.433 788.401 176.122 788.401 236.8 788.401 260.271 788.401 260.272 788.401 283.653 839.97 372.242 853.58 372.242 832.759 336.474 832.759 336.472" fill="#c1a066"/>
</svg>