<?xml version="1.0" encoding="UTF-8"?>
<!-- Vallark — Crested Bastion Boar — Painterly Mascot -->
<!-- Usage: Community avatar, merch, README banners, conference graphics -->
<!-- SigilArk Brand Family — April 2026 -->
<!-- v3.1: white-canvas background stripped; viewBox tightened to content bounds. -->
<!-- Source: VTracer 0.6.12 vector trace of hand-illustration. -->
<svg version="1.1" xmlns="http://www.w3.org/2000/svg" viewBox="84 88 1088 1088" width="240" height="240" role="img" aria-label="Vallark Crested Bastion boar">
<path d="M0,0 L2,0 L7,40 L10,60 L14,99 L17,127 L20,166 L21,176 L22,178 L33,136 L43,99 L58,43 L60,34 L62,34 L68,60 L75,90 L80,110 L84,130 L91,159 L97,187 L101,203 L102,204 L108,184 L113,170 L117,157 L124,134 L133,105 L138,90 L143,72 L144,68 L146,68 L153,92 L159,116 L165,137 L169,154 L174,172 L181,199 L186,219 L186,223 L188,223 L189,218 L197,198 L212,162 L220,142 L230,117 L232,118 L249,166 L265,211 L277,246 L278,251 L280,251 L282,247 L289,240 L298,229 L306,221 L313,213 L322,203 L329,195 L331,195 L339,221 L355,276 L357,282 L368,301 L377,316 L393,343 L394,346 L386,345 L354,336 L352,335 L352,597 L343,613 L327,642 L314,666 L301,689 L289,711 L276,734 L266,753 L259,766 L280,766 L309,768 L317,788 L333,831 L349,873 L355,889 L368,923 L374,939 L376,944 L375,952 L365,971 L349,1002 L337,1024 L329,1039 L328,1040 L-329,1040 L-338,1023 L-344,1011 L-356,989 L-371,960 L-377,949 L-376,943 L-362,905 L-355,886 L-351,876 L-344,857 L-324,803 L-311,768 L-278,766 L-259,766 L-268,749 L-281,726 L-296,699 L-311,672 L-327,643 L-342,616 L-353,596 L-353,336 L-379,343 L-394,347 L-392,342 L-379,321 L-363,295 L-354,281 L-349,261 L-343,240 L-338,222 L-331,197 L-330,195 L-328,195 L-321,203 L-309,216 L-300,227 L-293,234 L-286,242 L-279,250 L-275,242 L-258,195 L-255,187 L-242,151 L-230,119 L-228,117 L-215,149 L-187,219 L-186,221 L-183,213 L-175,183 L-168,156 L-163,139 L-159,122 L-147,77 L-144,68 L-142,70 L-137,88 L-129,112 L-125,126 L-120,141 L-114,160 L-108,180 L-102,200 L-100,207 L-93,177 L-91,168 L-89,161 L-82,135 L-78,119 L-73,97 L-68,79 L-63,57 L-59,42 L-57,34 L-55,34 L-44,79 L-28,142 L-21,170 L-18,183 L-14,146 L-6,57 L-2,24 Z " fill="#DAB060" transform="translate(628,112)"/>
<path d="M0,0 L2,1 L19,49 L35,94 L47,129 L48,134 L50,134 L52,130 L59,123 L68,112 L76,104 L83,96 L92,86 L99,78 L101,78 L109,104 L125,159 L127,165 L138,184 L147,199 L163,226 L164,229 L156,228 L124,219 L122,218 L122,480 L113,496 L97,525 L84,549 L71,572 L59,594 L46,617 L36,636 L29,649 L50,649 L79,651 L87,671 L103,714 L119,756 L125,772 L138,806 L144,822 L146,827 L145,835 L135,854 L119,885 L107,907 L99,922 L-230,922 L-231,884 L-239,880 L-280,864 L-290,860 L-305,854 L-321,848 L-348,837 L-373,827 L-390,821 L-411,813 L-421,809 L-418,808 L-376,821 L-342,832 L-305,844 L-277,854 L-267,857 L-241,866 L-230,870 L-231,765 L-254,755 L-270,748 L-284,741 L-300,734 L-321,724 L-344,714 L-353,709 L-366,704 L-394,691 L-412,683 L-434,673 L-470,657 L-487,650 L-488,648 L-486,648 L-486,646 L-478,640 L-463,628 L-452,620 L-442,612 L-441,611 L-429,612 L-406,617 L-369,624 L-354,627 L-331,632 L-298,638 L-281,642 L-263,647 L-233,655 L-226,654 L-183,643 L-169,639 L-164,634 L-157,627 L-149,620 L-136,608 L-124,597 L-116,590 L-106,581 L-98,574 L-85,562 L-75,553 L-62,541 L-47,527 L-37,518 L-24,506 L-12,495 L-4,488 L11,474 L19,467 L34,453 L44,444 L57,432 L73,417 L80,410 L88,403 L96,396 L85,403 L68,415 L49,428 L31,441 L13,454 L-5,467 L-23,481 L-42,495 L-60,508 L-79,522 L-98,536 L-117,550 L-135,563 L-150,574 L-160,599 L-165,615 L-167,618 L-167,613 L-168,614 L-292,614 L-294,614 L-295,618 L-299,608 L-304,592 L-310,577 L-310,569 L-299,524 L-298,522 L-163,521 L-150,503 L-146,497 L-230,497 L-230,309 L-243,309 L-287,313 L-291,314 L-341,318 L-358,320 L-420,326 L-466,330 L-482,332 L-511,334 L-513,328 L-518,302 L-522,283 L-523,275 L-514,272 L-483,267 L-474,265 L-464,264 L-462,263 L-453,262 L-445,260 L-404,253 L-372,248 L-357,245 L-308,237 L-297,236 L-288,242 L-263,256 L-238,270 L-231,274 L-226,272 L-202,259 L-185,249 L-162,236 L-138,239 L-110,244 L-94,246 L-86,248 L-66,251 L-26,258 L39,270 L62,274 L58,241 L56,226 L53,197 L51,179 L50,163 L49,160 L49,143 L41,142 L11,137 L1,135 Z " fill="#CC9F4A" transform="translate(858,229)"/>
<path d="M0,0 L2,0 L7,40 L10,60 L14,99 L17,127 L20,166 L21,176 L22,178 L33,136 L43,99 L58,43 L60,34 L62,34 L68,60 L75,90 L80,110 L84,130 L91,159 L97,187 L101,203 L102,204 L108,184 L113,170 L117,157 L124,134 L133,105 L138,90 L143,72 L144,68 L146,68 L153,92 L159,116 L165,137 L169,154 L174,172 L181,199 L186,219 L186,223 L188,223 L189,218 L197,198 L212,162 L220,142 L229,119 L231,120 L231,252 L241,253 L275,259 L279,260 L280,277 L281,280 L283,306 L286,330 L288,352 L291,376 L292,391 L274,389 L226,380 L182,372 L164,369 L139,365 L127,363 L103,359 L71,354 L67,355 L41,369 L22,380 L1,392 L-5,390 L-28,377 L-51,364 L-66,355 L-67,354 L-78,355 L-132,364 L-155,368 L-191,374 L-221,379 L-223,380 L-232,381 L-234,382 L-249,384 L-265,387 L-284,390 L-285,391 L-293,391 L-289,352 L-284,310 L-280,267 L-279,261 L-294,265 L-311,270 L-332,276 L-349,280 L-353,280 L-352,272 L-347,254 L-342,238 L-338,222 L-331,197 L-330,195 L-328,195 L-321,203 L-309,216 L-300,227 L-293,234 L-286,242 L-279,250 L-275,242 L-258,195 L-255,187 L-242,151 L-230,119 L-228,117 L-215,149 L-187,219 L-186,221 L-183,213 L-175,183 L-168,156 L-163,139 L-159,122 L-147,77 L-144,68 L-142,70 L-137,88 L-129,112 L-125,126 L-120,141 L-114,160 L-108,180 L-102,200 L-100,207 L-93,177 L-91,168 L-89,161 L-82,135 L-78,119 L-73,97 L-68,79 L-63,57 L-59,42 L-57,34 L-55,34 L-44,79 L-28,142 L-21,170 L-18,183 L-14,146 L-6,57 L-2,24 Z " fill="#E5BD6B" transform="translate(628,112)"/>
<path d="M0,0 L2,4 L9,36 L11,48 L40,46 L66,43 L102,40 L164,34 L181,32 L206,30 L231,28 L245,26 L279,23 L295,23 L292,24 L292,212 L376,212 L374,216 L362,233 L359,237 L224,237 L221,251 L213,284 L213,292 L221,312 L227,332 L228,328 L230,326 L230,329 L354,328 L356,326 L356,330 L361,314 L371,289 L384,279 L398,269 L417,255 L436,241 L455,227 L473,214 L492,200 L513,184 L531,171 L550,157 L567,145 L581,135 L593,127 L609,116 L617,110 L619,111 L604,125 L596,132 L586,142 L578,149 L571,156 L563,163 L548,177 L538,186 L525,198 L515,207 L502,219 L494,226 L479,240 L469,249 L456,261 L441,275 L431,284 L419,295 L409,304 L401,311 L391,320 L381,329 L368,341 L358,350 L353,355 L324,363 L293,371 L285,370 L243,359 L230,355 L208,351 L176,345 L168,343 L136,337 L108,331 L86,327 L81,324 L68,299 L56,277 L43,253 L31,231 L16,203 L4,180 L-8,158 L-18,139 L-28,121 L-33,113 L-37,108 L-33,110 L-20,120 L-2,132 L0,133 Z " fill="#EAC67D" transform="translate(336,514)"/>
<path d="M0,0 L1,0 L1,137 L-16,149 L-34,162 L-52,175 L-67,186 L-88,202 L-107,216 L-125,229 L-143,242 L-164,258 L-181,270 L-200,284 L-211,292 L-221,317 L-226,333 L-228,336 L-228,331 L-229,332 L-353,332 L-355,332 L-356,336 L-360,326 L-365,310 L-371,295 L-371,287 L-360,242 L-359,240 L-224,239 L-211,221 L-207,215 L-291,215 L-291,27 L-283,26 L-247,29 L-219,32 L-200,34 L-175,36 L-138,40 L-88,44 L-64,47 L-18,51 L-11,52 L-10,42 L-7,29 Z " fill="#DFB667" transform="translate(919,511)"/>
<path d="M0,0 L3,3 L13,30 L36,91 L43,109 L49,125 L60,154 L66,170 L68,175 L67,183 L57,202 L41,233 L29,255 L21,270 L-308,270 L-309,232 L-317,228 L-358,212 L-368,208 L-383,202 L-399,196 L-426,185 L-451,175 L-468,169 L-489,161 L-499,157 L-496,156 L-454,169 L-420,180 L-383,192 L-355,202 L-345,205 L-319,214 L-310,217 L-303,216 L-265,203 L-222,189 L-197,181 L-151,166 L-104,151 L-87,145 L-82,144 L-72,125 L-63,110 L-53,92 L-40,69 L-27,46 L-15,25 L-6,10 L-1,1 Z " fill="#C59742" transform="translate(936,881)"/>
<path d="M0,0 L2,0 L7,10 L15,23 L30,49 L41,68 L52,87 L61,103 L70,119 L78,133 L84,143 L92,146 L120,155 L120,157 L130,160 L154,169 L170,175 L201,187 L228,198 L246,205 L257,210 L273,216 L297,225 L309,230 L311,232 L311,270 L639,270 L639,271 L-18,271 L-27,254 L-33,242 L-45,220 L-60,191 L-66,180 L-65,174 L-51,136 L-44,117 L-40,107 L-33,88 L-13,34 L-1,1 Z " fill="#C99B46" transform="translate(317,881)"/>
<path d="M0,0 L5,0 L14,6 L39,20 L64,34 L71,38 L76,36 L100,23 L117,13 L140,0 L164,3 L192,8 L208,10 L216,12 L236,15 L276,22 L341,34 L360,37 L364,39 L363,49 L357,75 L352,98 L335,97 L299,94 L263,90 L216,86 L180,82 L153,80 L122,77 L102,75 L80,73 L59,73 L15,77 L11,78 L-39,82 L-56,84 L-118,90 L-164,94 L-180,96 L-209,98 L-211,92 L-216,66 L-220,47 L-221,39 L-212,36 L-181,31 L-172,29 L-162,28 L-160,27 L-151,26 L-143,24 L-102,17 L-70,12 L-55,9 L-6,1 Z " fill="#BD8D34" transform="translate(556,465)"/>
<path d="M0,0 L4,0 L3,19 L-1,60 L-5,91 L-8,123 L-10,130 L-6,131 L-9,132 L-8,141 L-9,274 L-14,272 L-30,261 L-42,252 L-44,251 L-39,256 L-32,270 L-21,289 L-13,305 L1,331 L13,354 L25,376 L40,404 L50,422 L65,450 L73,465 L75,467 L70,470 L60,478 L44,490 L33,499 L29,502 L27,502 L26,506 L24,507 L12,507 L15,505 L24,505 L15,488 L2,465 L-13,438 L-28,411 L-44,382 L-59,355 L-70,335 L-70,75 L-96,82 L-111,86 L-109,81 L-96,60 L-80,34 L-71,20 L-66,18 L-44,13 L-28,8 L-11,3 Z " fill="#D3A752" transform="translate(345,373)"/>
<path d="M0,0 L2,1 L-13,15 L-21,22 L-31,32 L-39,39 L-46,46 L-54,53 L-69,67 L-79,76 L-92,88 L-102,97 L-115,109 L-123,116 L-138,130 L-148,139 L-161,151 L-176,165 L-186,174 L-198,185 L-208,194 L-216,201 L-226,210 L-236,219 L-249,231 L-259,240 L-264,245 L-293,253 L-324,261 L-332,260 L-374,249 L-387,245 L-409,241 L-441,235 L-449,233 L-481,227 L-509,221 L-531,217 L-536,214 L-549,189 L-561,167 L-574,143 L-586,121 L-601,93 L-613,70 L-625,48 L-635,29 L-645,11 L-647,8 L-646,5 L-638,13 L-630,20 L-614,35 L-601,47 L-589,58 L-579,67 L-566,79 L-554,90 L-541,102 L-533,109 L-516,125 L-508,132 L-495,144 L-478,160 L-470,167 L-453,183 L-443,192 L-435,199 L-423,210 L-415,217 L-402,229 L-392,238 L-387,242 L-388,232 L-390,223 L-389,218 L-387,216 L-387,219 L-263,218 L-261,216 L-261,220 L-256,204 L-246,179 L-233,169 L-219,159 L-200,145 L-181,131 L-162,117 L-144,104 L-125,90 L-104,74 L-86,61 L-67,47 L-50,35 L-36,25 L-24,17 L-8,6 Z " fill="#E1B96A" transform="translate(953,624)"/>
<path d="M0,0 L3,3 L13,30 L36,91 L43,109 L49,125 L60,154 L66,170 L68,175 L67,183 L57,202 L41,233 L29,255 L21,270 L-308,270 L-308,269 L-35,268 L-45,242 L-50,228 L-54,218 L-69,179 L-76,161 L-82,144 L-72,125 L-63,110 L-53,92 L-40,69 L-27,46 L-15,25 L-6,10 L-1,1 Z " fill="#B68836" transform="translate(936,881)"/>
<path d="M0,0 L31,10 L37,12 L37,14 L47,17 L71,26 L87,32 L118,44 L145,55 L163,62 L174,67 L190,73 L214,82 L226,87 L228,89 L228,126 L-46,126 L-43,116 L-34,91 L-28,77 L-22,59 L-14,39 L-7,19 L-1,4 Z " fill="#D0A44F" transform="translate(400,1024)"/>
<path d="M0,0 L7,0 L7,110 L-7,103 L-28,91 L-51,78 L-60,72 L-71,73 L-125,82 L-148,86 L-184,92 L-214,97 L-216,98 L-225,99 L-227,100 L-242,102 L-258,105 L-277,108 L-278,109 L-286,109 L-282,70 L-278,39 L-272,37 L-234,32 L-205,28 L-193,26 L-177,24 L-142,19 L-91,12 L-53,7 L-6,1 Z " fill="#F3D490" transform="translate(621,394)"/>
<path d="M0,0 L24,3 L43,6 L66,8 L86,11 L122,16 L151,20 L241,32 L284,38 L286,48 L288,70 L291,94 L292,109 L274,107 L226,98 L182,90 L164,87 L139,83 L127,81 L103,77 L71,72 L67,73 L41,87 L22,98 L1,110 L0,110 Z " fill="#E9C375" transform="translate(628,394)"/>
<path d="M0,0 L5,0 L14,6 L39,20 L64,34 L72,39 L72,71 L74,72 L25,76 L11,78 L-39,82 L-56,84 L-118,90 L-164,94 L-180,96 L-209,98 L-211,92 L-216,66 L-220,47 L-221,39 L-212,36 L-181,31 L-172,29 L-162,28 L-160,27 L-151,26 L-143,24 L-102,17 L-70,12 L-55,9 L-6,1 Z " fill="#C7973C" transform="translate(556,465)"/>
<path d="M0,0 L3,1 L-25,14 L-45,23 L-72,35 L-97,46 L-130,61 L-159,74 L-174,81 L-197,91 L-206,95 L-220,102 L-230,106 L-241,111 L-252,116 L-261,113 L-279,105 L-303,94 L-323,85 L-344,75 L-367,65 L-376,60 L-389,55 L-417,42 L-435,34 L-457,24 L-493,8 L-506,2 L-503,1 L-467,7 L-414,16 L-383,22 L-356,27 L-332,31 L-309,36 L-278,41 L-264,44 L-253,45 L-219,39 L-192,34 L-144,25 L-127,22 L-70,12 L-40,7 L-20,3 Z " fill="#B78733" transform="translate(881,878)"/>
<path d="M0,0 L2,1 L0,6 L-12,28 L-19,40 L-26,54 L-38,76 L-53,104 L-68,132 L-78,151 L-87,167 L-101,193 L-109,207 L-110,210 L-122,213 L-162,221 L-248,238 L-259,239 L-258,236 L-250,229 L-238,218 L-228,209 L-215,197 L-207,190 L-197,181 L-189,174 L-176,162 L-166,153 L-153,141 L-138,127 L-128,118 L-115,106 L-103,95 L-95,88 L-80,74 L-72,67 L-57,53 L-47,44 L-34,32 L-18,17 L-11,10 L-3,3 Z " fill="#D7AC59" transform="translate(949,629)"/>
<path d="M0,0 L1,0 L1,11 L-1,53 L-4,76 L-14,101 L-19,117 L-21,120 L-21,115 L-22,116 L-146,116 L-148,116 L-149,120 L-153,110 L-158,94 L-164,79 L-164,71 L-153,26 L-152,24 L-17,23 L-4,5 Z " fill="#CB9F48" transform="translate(712,727)"/>
<path d="M0,0 L110,0 L110,110 L0,110 Z " fill="#111622" transform="translate(739,587)"/>
<path d="M0,0 L110,0 L110,110 L0,110 Z " fill="#121823" transform="translate(407,587)"/>
<path d="M0,0 L1,0 L5,26 L10,64 L13,95 L16,123 L19,162 L20,172 L21,174 L32,132 L42,95 L57,39 L59,30 L61,30 L67,56 L74,86 L79,106 L83,126 L90,155 L96,183 L101,204 L103,221 L103,227 L90,226 L67,222 L42,219 L11,215 L0,212 Z " fill="#E5BB63" transform="translate(629,116)"/>
<path d="M0,0 L2,2 L7,20 L15,44 L19,58 L24,73 L30,92 L36,112 L42,132 L43,135 L43,148 L39,164 L6,169 L-14,172 L-22,174 L-39,175 L-40,178 L-50,178 L-80,183 L-85,183 L-85,49 L-83,51 L-71,81 L-43,151 L-42,153 L-39,145 L-31,115 L-24,88 L-19,71 L-15,54 L-3,9 Z " fill="#E8BF68" transform="translate(484,180)"/>
<path d="M0,0 L2,1 L-13,15 L-21,22 L-31,32 L-39,39 L-46,46 L-54,53 L-69,67 L-79,76 L-92,88 L-102,97 L-115,109 L-123,116 L-138,130 L-148,139 L-161,151 L-176,165 L-186,174 L-198,185 L-208,194 L-216,201 L-226,210 L-236,219 L-249,231 L-259,240 L-264,243 L-264,232 L-260,216 L-252,193 L-246,179 L-233,169 L-219,159 L-200,145 L-181,131 L-162,117 L-144,104 L-125,90 L-104,74 L-86,61 L-67,47 L-50,35 L-36,25 L-24,17 L-8,6 Z " fill="#F4D898" transform="translate(953,624)"/>
<path d="M0,0 L4,2 L17,12 L39,27 L53,37 L72,50 L87,61 L101,71 L117,83 L136,97 L149,107 L168,121 L187,135 L199,144 L214,155 L227,165 L242,176 L249,181 L258,204 L264,224 L268,240 L268,245 L260,239 L244,224 L236,217 L224,206 L216,199 L205,189 L197,182 L181,167 L168,155 L158,146 L151,139 L143,132 L130,120 L120,111 L105,97 L97,90 L81,75 L71,66 L58,54 L48,45 L35,33 L20,19 L8,8 L0,1 Z " fill="#F6DA9D" transform="translate(299,622)"/>
<path d="M0,0 L2,2 L18,66 L31,117 L36,138 L41,156 L45,172 L46,181 L31,184 L8,187 L3,188 L-5,188 L-4,141 L-2,53 Z " fill="#CE9A34" transform="translate(572,149)"/>
<path d="M0,0 L2,0 L0,56 L-3,178 L-4,191 L12,190 L8,192 L-4,193 L-15,194 L-43,198 L-47,198 L-46,188 L-44,173 L-43,173 L-36,143 L-34,134 L-32,127 L-25,101 L-21,85 L-16,63 L-11,45 L-6,23 L-2,8 Z " fill="#F0D08B" transform="translate(571,146)"/>
<path d="M0,0 L2,2 L7,20 L15,44 L19,58 L24,73 L30,92 L36,112 L42,132 L43,135 L43,148 L39,164 L6,169 L-1,169 L-1,122 Z " fill="#CC9730" transform="translate(484,180)"/>
<path d="M0,0 L2,4 L7,25 L14,55 L19,75 L23,95 L30,124 L36,152 L41,173 L43,190 L43,196 L30,195 L2,190 L1,68 Z " fill="#BB892E" transform="translate(689,147)"/>
<path d="M0,0 L2,2 L9,29 L15,50 L23,82 L28,100 L35,127 L42,155 L45,171 L45,173 L5,167 L0,166 Z " fill="#B8862A" transform="translate(774,184)"/>
<path d="M0,0 L2,1 L19,49 L35,94 L47,129 L49,135 L49,143 L41,142 L11,137 L1,135 Z " fill="#C89532" transform="translate(858,229)"/>
<path d="M0,0 L2,2 L14,32 L42,102 L43,104 L43,115 L40,127 L35,129 L5,134 L0,134 Z " fill="#CC9831" transform="translate(399,229)"/>
<path d="M0,0 L1,0 L5,26 L10,64 L13,95 L16,123 L20,180 L17,197 L13,214 L2,213 L0,212 Z " fill="#AB7A21" transform="translate(629,116)"/>
<path d="M0,0 L1,3 L125,2 L127,0 L127,10 L125,16 L124,26 L122,27 L99,25 L85,23 L71,22 L48,22 L10,26 L3,27 L1,22 L-2,7 L-1,2 Z " fill="#D5A954" transform="translate(565,840)"/>
<path d="M0,0 L2,0 L10,26 L15,43 L14,45 L12,44 L10,34 L9,33 L9,27 L7,27 L6,20 L5,17 L3,17 L3,31 L2,35 L2,73 L1,79 L-14,76 L-35,70 L-50,65 L-51,56 L-49,56 L-47,52 L-40,45 L-31,34 L-23,26 L-16,18 L-7,8 Z " fill="#E2BC70" transform="translate(957,307)"/>
<path d="M0,0 L2,0 L0,217 L-9,218 L-14,203 L-18,185 L-13,134 L-5,48 L-2,24 Z " fill="#F3D38C" transform="translate(628,112)"/>
<path d="M0,0 L3,1 L-37,16 L-68,28 L-96,39 L-116,47 L-140,56 L-166,66 L-180,72 L-192,76 L-195,76 L-195,65 L-190,62 L-152,49 L-109,35 L-84,27 L-38,12 Z " fill="#B38533" transform="translate(823,1035)"/>
<path d="M0,0 L33,0 L33,33 L0,33 Z " fill="#EDE5D9" transform="translate(799,605)"/>
<path d="M0,0 L32,0 L32,33 L0,33 Z " fill="#F2EBDE" transform="translate(467,605)"/>
<path d="M0,0 L1,0 L1,11 L-1,53 L-3,70 L-5,72 L-11,52 L-15,34 L-17,25 L-21,24 L-17,23 L-4,5 Z " fill="#CEA14E" transform="translate(712,727)"/>
<path d="M0,0 L7,0 L3,2 L-39,9 L-60,12 L-103,18 L-118,20 L-134,22 L-156,25 L-206,31 L-215,31 L-215,30 L-193,26 L-177,24 L-142,19 L-91,12 L-53,7 L-6,1 Z " fill="#FBEABF" transform="translate(621,394)"/>
<path d="M0,0 L8,0 L21,2 L44,4 L64,7 L100,12 L129,16 L189,24 L193,26 L174,25 L146,22 L100,16 L55,10 L18,5 L0,1 Z " fill="#F0CD87" transform="translate(650,398)"/>
<path d="M0,0 L31,0 L29,5 L16,30 L13,27 L2,5 Z " fill="#111520" transform="translate(647,782)"/>
<path d="M0,0 L30,0 L28,6 L16,29 L14,30 L0,2 Z " fill="#11151F" transform="translate(578,782)"/>
<path d="M0,0 L3,4 L7,20 L8,29 L-1,31 L-15,31 L-15,30 L-8,29 L-2,2 Z " fill="#C28F29" transform="translate(610,301)"/>
<path d="M0,0 L17,0 L17,17 L0,17 Z " fill="#C79A3F" transform="translate(758,660)"/>
<path d="M0,0 L17,0 L17,17 L0,17 Z " fill="#D1A343" transform="translate(425,660)"/>
<path d="M0,0 L2,0 L5,12 L7,24 L7,29 L-7,28 L-5,27 L-4,19 Z " fill="#D2A246" transform="translate(647,303)"/>
<path d="M0,0 L4,2 L13,11 L21,18 L33,29 L46,41 L58,52 L66,59 L83,75 L84,77 L80,75 L63,59 L51,48 L39,37 L27,26 L17,17 L4,5 Z " fill="#FAE9B6" transform="translate(330,650)"/>
<path d="M0,0 L2,0 L10,26 L15,43 L14,45 L12,44 L10,34 L9,33 L9,27 L7,27 L6,20 L5,17 L3,17 L3,31 L1,33 Z " fill="#D6AD61" transform="translate(957,307)"/>
<path d="M0,0 L4,2 L17,12 L33,23 L30,24 L25,20 L29,25 L31,26 L31,28 L27,26 L18,17 L10,10 L0,1 Z " fill="#F8E5B0" transform="translate(299,622)"/>
<path d="M0,0 L4,2 L12,10 L20,17 L35,31 L42,37 L41,39 L31,30 L15,15 L7,8 L0,1 Z " fill="#F9E7B1" transform="translate(451,761)"/>
<path d="M0,0 L2,1 L-13,15 L-21,22 L-24,22 L-18,16 L-18,13 L-8,6 Z " fill="#F7E5AA" transform="translate(953,624)"/>
<path d="M0,0 L2,3 L4,10 L3,14 L2,12 L1,55 L0,55 Z " fill="#C58C23" transform="translate(485,184)"/>
<path d="M0,0 L4,2 L17,14 L30,26 L35,30 L34,32 L26,25 L13,13 L3,4 Z " fill="#FAE9B7" transform="translate(416,729)"/>
</svg>
