<?xml version="1.0" encoding="utf-8"?>
<!-- Generator: Adobe Illustrator 21.0.2, SVG Export Plug-In . SVG Version: 6.00 Build 0)  -->
<svg version="1.1" id="Layer_1" xmlns="http://www.w3.org/2000/svg" xmlns:xlink="http://www.w3.org/1999/xlink" x="0px" y="0px"
	 viewBox="0 0 100 42" style="enable-background:new 0 0 100 42;" xml:space="preserve">
<g>
	<path d="M18.9,18.4c-0.6-1.3-1.5-2.3-2.7-3c-1.2-0.6-2.7-0.9-4.4-0.8c-2,0.1-3.9,0.7-5.5,1.9c-1.6,1.1-2.8,2.6-3.7,4.4
		c-0.9,1.8-1.2,3.8-1.1,6c0.1,1.8,0.5,3.3,1.3,4.6c0.8,1.3,1.8,2.3,3.1,3c1.3,0.7,2.7,1,4.4,0.9c1.3-0.1,2.6-0.4,3.7-1
		s2.2-1.4,3-2.4l-0.4,2.8l4.9-0.3l3.9-28.4l-4.9,0.3L18.9,18.4z M17.4,27.4c-0.5,1.1-1.3,2-2.2,2.7c-1,0.7-2.1,1.1-3.3,1.1
		c-1.5,0.1-2.8-0.3-3.7-1.2c-1-0.9-1.5-2.1-1.6-3.7c-0.1-1.3,0.1-2.5,0.7-3.6c0.5-1.1,1.3-2,2.2-2.7c1-0.7,2.1-1.1,3.3-1.1
		c1.5-0.1,2.8,0.3,3.7,1.2c1,0.9,1.5,2.2,1.6,3.8C18.1,25.1,17.9,26.3,17.4,27.4z"/>
	<path d="M43.9,12.9l-0.6,4.1c-0.6-1.3-1.5-2.3-2.7-3c-1.2-0.6-2.7-0.9-4.4-0.8c-2,0.1-3.9,0.7-5.5,1.9c-1.6,1.1-2.8,2.6-3.7,4.4
		c-0.9,1.8-1.2,3.8-1.1,6c0.1,1.8,0.5,3.3,1.3,4.6c0.8,1.3,1.8,2.3,3.1,3c1.3,0.7,2.7,1,4.4,0.9c1.3-0.1,2.6-0.4,3.7-1
		c1.2-0.6,2.2-1.4,3-2.4l-0.4,2.8L46,33l2.8-20.5L43.9,12.9z M41.8,25.9c-0.5,1.1-1.3,2-2.2,2.7c-1,0.7-2.1,1.1-3.3,1.1
		c-1.5,0.1-2.8-0.3-3.7-1.2c-1-0.9-1.5-2.1-1.6-3.7c-0.1-1.3,0.1-2.5,0.7-3.6c0.5-1.1,1.3-2,2.2-2.7c1-0.7,2.1-1.1,3.3-1.1
		c1.5-0.1,2.8,0.3,3.7,1.2s1.5,2.2,1.6,3.8C42.5,23.7,42.3,24.8,41.8,25.9z"/>
	<path d="M66.1,11.5l-7.4,15.4l-3.6-14.7l-5,0.3l5.6,19.6l-0.8,1.3c-1,1.5-2.1,2.3-3.5,2.3c-0.8,0-1.6-0.2-2.4-0.7l-2.3,3.6
		c0.7,0.6,1.5,1.1,2.3,1.3c0.8,0.3,1.7,0.4,2.7,0.3c3.2-0.2,5.6-2,7.3-5.3l12.3-23.8L66.1,11.5z"/>
	<path d="M86.2,12.5c-1.7-1.5-4-2.1-6.8-2c-2.2,0.1-4.1,0.7-5.8,1.9c-1.7,1.1-3,2.5-3.9,4.3c-0.9,1.8-1.3,3.8-1.1,5.9
		c0.1,1.8,0.6,3.4,1.6,4.8c0.9,1.3,2.2,2.4,3.8,3c1.6,0.7,3.4,0.9,5.4,0.8C82.4,31.1,85,30,87,28l-2.5-2.8c-1.5,1.3-3.3,2-5.2,2.1
		c-1.6,0.1-2.9-0.2-3.9-1c-1-0.8-1.6-1.9-1.8-3.3L88.9,22c0.2-1.1,0.2-2.2,0.2-3.2C88.9,16.1,88,14,86.2,12.5z M73.7,19.6
		c0.4-1.5,1.1-2.7,2.2-3.6s2.4-1.5,3.8-1.6c1.5-0.1,2.6,0.3,3.5,1.1c0.8,0.8,1.3,2,1.3,3.5L73.7,19.6z"/>
	<polygon points="94.5,1.9 90.6,30.3 95.6,30 99.5,1.6 	"/>
</g>
</svg>
