<svg xmlns="http://www.w3.org/2000/svg" viewBox="0 0 150 30" enable-background="new 0 0 150 30"><path d="M19.3 9.4c-1.2 0-2.2.3-3.1.8-.9.5-1.5 1.3-1.9 2.4-.3-1-.9-1.8-1.7-2.4-.8-.6-1.8-.8-3-.8-2.2 0-3.7.9-4.7 2.6v-2.5h-4v14h4v-6.9c0-1 .3-1.9.8-2.5s1.3-1.1 2.3-1.1c.8 0 1.5.3 1.9.8.5.5.7 1.2.7 2.1v7.6h3.9v-6.9c0-1 .3-1.9.8-2.5.5-.7 1.3-1 2.2-1 .8 0 1.5.3 2 .8s.7 1.2.7 2.1v7.6h3.9v-8.8c0-1.6-.5-3-1.4-3.9-.7-1.1-1.9-1.5-3.4-1.5zM33.7 9.4c-1.4 0-2.6.3-3.7.9-1.1.6-1.9 1.4-2.5 2.5-.6 1.1-.9 2.3-.9 3.8 0 1.4.3 2.6.9 3.7.6 1.1 1.4 1.9 2.5 2.5 1.1.6 2.4.9 3.8.9 1.2 0 2.4-.2 3.4-.6 1-.4 1.9-1 2.6-1.8l-2.1-2.1c-.5.5-1 .9-1.6 1.1s-1.2.4-1.9.4c-.9 0-1.7-.2-2.3-.7-.6-.5-1.1-1.2-1.3-2.1h10v-1c0-2.3-.6-4.1-1.7-5.4-1.3-1.5-3-2.1-5.2-2.1zm-3.3 6c.2-.9.5-1.7 1.1-2.2.6-.5 1.3-.8 2.2-.8.9 0 1.6.3 2.2.8.6.6.8 1.3.9 2.2h-6.4zM49.1 9.4c-1.4 0-2.6.3-3.7.9-1.1.6-1.9 1.4-2.5 2.5-.6 1.1-.9 2.3-.9 3.8 0 1.4.3 2.6.9 3.7.6 1.1 1.4 1.9 2.5 2.5 1.1.6 2.4.9 3.8.9 1.2 0 2.4-.2 3.4-.6 1-.4 1.9-1 2.6-1.8l-2.2-2.2c-.5.5-1 .9-1.6 1.1s-1.2.4-1.9.4c-.9 0-1.7-.2-2.3-.7-.6-.5-1.1-1.2-1.3-2.1h10v-1c0-2.3-.6-4.1-1.7-5.4-1.2-1.4-2.9-2-5.1-2zm-3.3 6c.2-.9.5-1.7 1.1-2.2.6-.5 1.3-.8 2.2-.8.9 0 1.6.3 2.2.8.6.6.8 1.3.9 2.2h-6.4zM64.3 20.3c-.8 0-1.3-.5-1.3-1.6v-5.8h3.8v-2.8h-3.8v-3.8h-3.9v3.8h-1.9v2.8h1.9v6.5c0 1.4.4 2.5 1.2 3.2.8.7 1.9 1.1 3.1 1.1.6 0 1.3-.1 1.9-.2.6-.2 1.2-.4 1.7-.7l-.8-2.9c-.6.2-1.3.4-1.9.4zM85.3 11.6c-1-1.5-2.5-2.2-4.5-2.2-1.3 0-2.4.3-3.4.9-1 .6-1.7 1.4-2.3 2.5-.5 1.1-.8 2.3-.8 3.7 0 1.4.3 2.7.8 3.8.5 1.1 1.3 1.9 2.3 2.5 1 .6 2.1.9 3.4.9.9 0 1.8-.2 2.5-.6.7-.4 1.4-.9 1.9-1.7v2.1h3.9v-19.3h-3.9v7.4zm-1 7.8c-.6.7-1.5 1.1-2.5 1.1s-1.9-.4-2.5-1.1c-.6-.7-1-1.7-1-2.8 0-1.1.3-2.1 1-2.8s1.5-1.1 2.5-1.1 1.8.4 2.5 1.1c.6.7 1 1.7 1 2.8 0 1.1-.4 2-1 2.8zM103.5 10.7c-1-.9-2.5-1.3-4.3-1.3-1.2 0-2.2.1-3.2.4-1 .3-2 .7-3.1 1.2l1.2 2.8c1.5-.8 2.8-1.2 4.1-1.2.9 0 1.7.2 2.2.6.5.4.7 1 .7 1.7v.3h-3.8c-1.7 0-3 .4-3.9 1.1-.9.7-1.4 1.8-1.4 3.1s.4 2.4 1.3 3.2c.9.8 2 1.2 3.5 1.2 1 0 1.8-.2 2.6-.5.7-.3 1.3-.8 1.8-1.4v1.6h3.9v-9.1c0-1.6-.5-2.8-1.6-3.7zm-2.3 8c-.1.6-.5 1.1-1.1 1.5-.6.4-1.3.6-2.1.6-.7 0-1.2-.2-1.6-.5-.4-.3-.6-.7-.6-1.3 0-.6.2-1 .6-1.2.4-.3.9-.4 1.7-.4h3.1v1.3zM113.9 19.1l-3.6-9.6h-4.1l5.8 13.7-.4.8c-.4.8-1 1.2-1.8 1.2-.6 0-1.2-.3-1.8-.8l-1.7 2.9c.6.5 1.2.8 1.8 1 .6.2 1.3.3 2 .3 2.4 0 4.1-1.2 5.1-3.7l6.1-15.5h-4l-3.4 9.7zM128.3 9.4c-1.4 0-2.6.3-3.7.9-1.1.6-1.9 1.4-2.5 2.5-.6 1.1-.9 2.3-.9 3.8 0 1.4.3 2.6.9 3.7.6 1.1 1.4 1.9 2.5 2.5 1.1.6 2.4.9 3.8.9 1.2 0 2.4-.2 3.4-.6 1-.4 1.9-1 2.6-1.8l-2.1-2.1c-.5.5-1 .9-1.6 1.1-.6.3-1.2.4-1.9.4-.9 0-1.7-.2-2.3-.7-.6-.5-1.1-1.2-1.3-2.1h10v-1c0-2.3-.6-4.1-1.7-5.4-1.2-1.5-2.9-2.1-5.2-2.1zm-3.2 6c.2-.9.5-1.7 1.1-2.2.6-.5 1.3-.8 2.2-.8.9 0 1.6.3 2.2.8.5.6.8 1.3.9 2.2h-6.4zM137.9 4.2h4v19.3h-4zM148.4 20.2c-.4-.4-.8-.6-1.4-.6-.6 0-1 .2-1.4.6-.4.4-.6.9-.6 1.5s.2 1.1.6 1.5.9.6 1.4.6c.6 0 1.1-.2 1.4-.6.4-.4.6-.9.6-1.5s-.2-1.1-.6-1.5z"/></svg>